<svg width="26" height="26" viewBox="0 0 26 26" fill="none" xmlns="http://www.w3.org/2000/svg">
<g id="icon">
<g id="Shape">
<path fill-rule="evenodd" clip-rule="evenodd" d="M13.7826 12.5297V7.65634C14.6935 7.9794 15.3478 8.84931 15.3478 9.86954C15.3478 10.3017 15.6982 10.6522 16.1304 10.6522C16.5627 10.6522 16.9131 10.3018 16.9131 9.86954C16.9131 7.97982 15.5666 6.39882 13.7826 6.03521V4.91303C13.7826 4.48084 13.4322 4.1304 13 4.1304C12.5678 4.1304 12.2174 4.48079 12.2174 4.91303V6.03521C10.4334 6.39878 9.08691 7.97978 9.08691 9.86954C9.08691 11.6554 10.6719 12.6411 12.2174 13.4703V18.3437C11.3064 18.0206 10.6522 17.1507 10.6522 16.1304C10.6522 15.6983 10.3018 15.3478 9.86954 15.3478C9.4373 15.3478 9.08691 15.6982 9.08691 16.1304C9.08691 18.0202 10.4334 19.6012 12.2174 19.9648V21.087C12.2174 21.5192 12.5678 21.8696 13 21.8696C13.4322 21.8696 13.7826 21.5192 13.7826 21.087V19.9648C15.5665 19.6012 16.9131 18.0202 16.9131 16.1304C16.913 14.3446 15.328 13.3589 13.7826 12.5297ZM12.2174 11.6776C11.3247 11.1471 10.6522 10.5868 10.6522 9.86959C10.6522 8.84931 11.3065 7.97945 12.2174 7.65639V11.6776ZM13.7826 14.3224V18.3437C14.6935 18.0206 15.3478 17.1507 15.3478 16.1304C15.3478 15.4132 14.6753 14.8529 13.7826 14.3224Z" fill="#5DD583"/>
<path d="M13.7826 7.65634L13.8662 7.42072L13.5326 7.30242V7.65634H13.7826ZM13.7826 12.5297H13.5326V12.6792L13.6644 12.7499L13.7826 12.5297ZM13.7826 6.03521H13.5326V6.2394L13.7327 6.28018L13.7826 6.03521ZM12.2174 6.03521L12.2673 6.28018L12.4674 6.2394V6.03521H12.2174ZM12.2174 13.4703H12.4674V13.3208L12.3356 13.25L12.2174 13.4703ZM12.2174 18.3437L12.1338 18.5793L12.4674 18.6976V18.3437H12.2174ZM12.2174 19.9648H12.4674V19.7606L12.2673 19.7198L12.2174 19.9648ZM13.7826 19.9648L13.7327 19.7198L13.5326 19.7606V19.9648H13.7826ZM16.9131 16.1304H17.1631L17.1631 16.1304L16.9131 16.1304ZM12.2174 11.6776L12.0897 11.8925L12.4674 12.1169V11.6776H12.2174ZM12.2174 7.65639H12.4674V7.30246L12.1338 7.42077L12.2174 7.65639ZM13.7826 18.3437H13.5326V18.6976L13.8662 18.5793L13.7826 18.3437ZM13.7826 14.3224L13.9103 14.1075L13.5326 13.8831V14.3224H13.7826ZM13.5326 7.65634V12.5297H14.0326V7.65634H13.5326ZM15.5978 9.86954C15.5978 8.73982 14.8734 7.77793 13.8662 7.42072L13.6991 7.89196C14.5137 8.18087 15.0978 8.9588 15.0978 9.86954H15.5978ZM16.1304 10.4022C15.8363 10.4022 15.5978 10.1637 15.5978 9.86954H15.0978C15.0978 10.4398 15.5601 10.9022 16.1304 10.9022V10.4022ZM16.6631 9.86954C16.6631 10.1637 16.4246 10.4022 16.1304 10.4022V10.9022C16.7008 10.9022 17.1631 10.4398 17.1631 9.86954H16.6631ZM13.7327 6.28018C15.4027 6.62057 16.6631 8.1012 16.6631 9.86954H17.1631C17.1631 7.85844 15.7304 6.17708 13.8325 5.79025L13.7327 6.28018ZM13.5326 4.91303V6.03521H14.0326V4.91303H13.5326ZM13 4.3804C13.2941 4.3804 13.5326 4.6189 13.5326 4.91303H14.0326C14.0326 4.34278 13.5703 3.8804 13 3.8804V4.3804ZM12.4674 4.91303C12.4674 4.61887 12.7059 4.3804 13 4.3804V3.8804C12.4297 3.8804 11.9674 4.34271 11.9674 4.91303H12.4674ZM12.4674 6.03521V4.91303H11.9674V6.03521H12.4674ZM9.33691 9.86954C9.33691 8.10116 10.5973 6.62053 12.2673 6.28018L12.1674 5.79025C10.2696 6.17703 8.83691 7.8584 8.83691 9.86954H9.33691ZM12.3356 13.25C11.5629 12.8355 10.8086 12.3958 10.2469 11.8495C9.69168 11.3094 9.33691 10.6774 9.33691 9.86954H8.83691C8.83691 10.8475 9.27466 11.6013 9.8983 12.2079C10.5154 12.8082 11.3264 13.276 12.0992 13.6906L12.3356 13.25ZM12.4674 18.3437V13.4703H11.9674V18.3437H12.4674ZM10.4022 16.1304C10.4022 17.2602 11.1266 18.2221 12.1338 18.5793L12.3009 18.108C11.4863 17.8191 10.9022 17.0412 10.9022 16.1304H10.4022ZM9.86954 15.5978C10.1637 15.5978 10.4022 15.8363 10.4022 16.1304H10.9022C10.9022 15.5602 10.4399 15.0978 9.86954 15.0978V15.5978ZM9.33691 16.1304C9.33691 15.8363 9.57538 15.5978 9.86954 15.5978V15.0978C9.29923 15.0978 8.83691 15.5601 8.83691 16.1304H9.33691ZM12.2673 19.7198C10.5972 19.3794 9.33691 17.8988 9.33691 16.1304H8.83691C8.83691 18.1415 10.2696 19.8229 12.1674 20.2097L12.2673 19.7198ZM12.4674 21.087V19.9648H11.9674V21.087H12.4674ZM13 21.6196C12.7058 21.6196 12.4674 21.3811 12.4674 21.087H11.9674C11.9674 21.6572 12.4297 22.1196 13 22.1196V21.6196ZM13.5326 21.087C13.5326 21.3811 13.2941 21.6196 13 21.6196V22.1196C13.5702 22.1196 14.0326 21.6573 14.0326 21.087H13.5326ZM13.5326 19.9648V21.087H14.0326V19.9648H13.5326ZM16.6631 16.1304C16.6631 17.8988 15.4027 19.3795 13.7327 19.7198L13.8325 20.2097C15.7304 19.823 17.1631 18.1416 17.1631 16.1304H16.6631ZM13.6644 12.7499C14.4371 13.1645 15.1913 13.6042 15.753 14.1505C16.3083 14.6906 16.663 15.3225 16.6631 16.1305L17.1631 16.1304C17.163 15.1525 16.7253 14.3987 16.1017 13.7921C15.4845 13.1918 14.6735 12.724 13.9008 12.3094L13.6644 12.7499ZM10.4022 9.86959C10.4022 10.3137 10.6123 10.6915 10.9183 11.0153C11.2222 11.3369 11.6374 11.6237 12.0897 11.8925L12.3451 11.4626C11.9046 11.2009 11.5373 10.9424 11.2817 10.6719C11.0283 10.4037 10.9022 10.1427 10.9022 9.86959H10.4022ZM12.1338 7.42077C11.1266 7.77798 10.4022 8.73981 10.4022 9.86959H10.9022C10.9022 8.9588 11.4863 8.18092 12.3009 7.89201L12.1338 7.42077ZM12.4674 11.6776V7.65639H11.9674V11.6776H12.4674ZM14.0326 18.3437V14.3224H13.5326V18.3437H14.0326ZM15.0978 16.1304C15.0978 17.0412 14.5136 17.8191 13.699 18.108L13.8662 18.5793C14.8734 18.2221 15.5978 17.2602 15.5978 16.1304H15.0978ZM13.6549 14.5374C14.0953 14.7991 14.4627 15.0576 14.7183 15.3281C14.9717 15.5963 15.0978 15.8573 15.0978 16.1304H15.5978C15.5978 15.6863 15.3877 15.3085 15.0817 14.9847C14.7778 14.6631 14.3626 14.3762 13.9103 14.1075L13.6549 14.5374Z" fill="#5DD583"/>
</g>
<g id="Shape_2">
<path fill-rule="evenodd" clip-rule="evenodd" d="M1 13C1 6.38322 6.38322 1 13 1C19.6168 1 25 6.38322 25 13C25 19.6168 19.6168 25 13 25C6.38322 25 1 19.6168 1 13ZM2.5652 13C2.5652 18.7538 7.24628 23.4348 13 23.4348C18.7537 23.4348 23.4348 18.7537 23.4348 13C23.4348 7.24628 18.7537 2.5652 13 2.5652C7.24628 2.5652 2.5652 7.24623 2.5652 13Z" fill="#5DD583"/>
<path d="M13 0.75C6.24515 0.75 0.75 6.24515 0.75 13H1.25C1.25 6.52129 6.52129 1.25 13 1.25V0.75ZM25.25 13C25.25 6.24515 19.7549 0.75 13 0.75V1.25C19.4787 1.25 24.75 6.52129 24.75 13H25.25ZM13 25.25C19.7549 25.25 25.25 19.7549 25.25 13H24.75C24.75 19.4787 19.4787 24.75 13 24.75V25.25ZM0.75 13C0.75 19.7549 6.24515 25.25 13 25.25V24.75C6.52129 24.75 1.25 19.4787 1.25 13H0.75ZM13 23.1848C7.38435 23.1848 2.8152 18.6157 2.8152 13H2.3152C2.3152 18.8918 7.10821 23.6848 13 23.6848V23.1848ZM23.1848 13C23.1848 18.6156 18.6156 23.1848 13 23.1848V23.6848C18.8918 23.6848 23.6848 18.8918 23.6848 13H23.1848ZM13 2.8152C18.6156 2.8152 23.1848 7.38435 23.1848 13H23.6848C23.6848 7.10821 18.8918 2.3152 13 2.3152V2.8152ZM2.8152 13C2.8152 7.38431 7.38435 2.8152 13 2.8152V2.3152C7.10821 2.3152 2.3152 7.10816 2.3152 13H2.8152Z" fill="#5DD583"/>
</g>
</g>
</svg>
