<svg width="29" height="26" viewBox="0 0 29 26" fill="none" xmlns="http://www.w3.org/2000/svg">
<g id="icon">
<path fill-rule="evenodd" clip-rule="evenodd" d="M27.5117 4.20021L27.5067 4.2H20.2533V3.4C20.2533 2.07667 19.1767 1 17.8533 1H11.4533C10.13 1 9.05333 2.07667 9.05333 3.4V4.2H1.8C1.35458 4.2 1 4.565 1 5V22.6C1 23.9233 2.07667 25 3.4 25H25.9067C27.23 25 28.3067 23.9233 28.3067 22.6V5.01687V5.01375C28.276 4.48833 27.9529 4.20312 27.5117 4.20021ZM10.6533 3.4C10.6533 2.95896 11.0123 2.6 11.4533 2.6H17.8533C18.2944 2.6 18.6533 2.95896 18.6533 3.4V4.2H10.6533V3.4ZM23.9123 13.2529L26.3967 5.8H2.91L5.39437 13.2529C5.50333 13.5802 5.80833 13.8 6.15312 13.8H10.6533V13C10.6533 12.5581 11.0115 12.2 11.4533 12.2H17.8533C18.2952 12.2 18.6533 12.5581 18.6533 13V13.8H23.1535C23.4983 13.8 23.8033 13.5802 23.9123 13.2529ZM17.0533 13.8V15.4H12.2533V13.8H17.0533ZM25.9067 23.4C26.3477 23.4 26.7067 23.041 26.7067 22.6V9.92979L25.4302 13.759C25.1031 14.7406 24.1881 15.4 23.1535 15.4H18.6533V16.2C18.6533 16.6419 18.2952 17 17.8533 17H11.4533C11.0115 17 10.6533 16.6419 10.6533 16.2V15.4H6.15312C5.11854 15.4 4.20354 14.7406 3.87646 13.759L2.6 9.92979V22.6C2.6 23.041 2.95896 23.4 3.4 23.4H25.9067Z" fill="#D5BE5D"/>
<path d="M27.5067 4.2L27.5171 3.95H27.5067V4.2ZM27.5117 4.20021L27.5013 4.45015L27.51 4.4502L27.5117 4.20021ZM20.2533 4.2H20.0033V4.45H20.2533V4.2ZM9.05333 4.2V4.45H9.30333V4.2H9.05333ZM28.3067 5.01375H28.5567V5.00647L28.5562 4.9992L28.3067 5.01375ZM18.6533 4.2V4.45H18.9033V4.2H18.6533ZM10.6533 4.2H10.4033V4.45H10.6533V4.2ZM26.3967 5.8L26.6338 5.87906L26.7435 5.55H26.3967V5.8ZM23.9123 13.2529L23.6751 13.1739L23.6751 13.174L23.9123 13.2529ZM2.91 5.8V5.55H2.56314L2.67283 5.87906L2.91 5.8ZM5.39437 13.2529L5.63158 13.174L5.63155 13.1739L5.39437 13.2529ZM10.6533 13.8V14.05H10.9033V13.8H10.6533ZM18.6533 13.8H18.4033V14.05H18.6533V13.8ZM17.0533 15.4V15.65H17.3033V15.4H17.0533ZM17.0533 13.8H17.3033V13.55H17.0533V13.8ZM12.2533 15.4H12.0033V15.65H12.2533V15.4ZM12.2533 13.8V13.55H12.0033V13.8H12.2533ZM26.7067 9.92979H26.9567L26.4695 9.85073L26.7067 9.92979ZM25.4302 13.759L25.193 13.6799L25.193 13.6799L25.4302 13.759ZM18.6533 15.4V15.15H18.4033V15.4H18.6533ZM10.6533 15.4H10.9033V15.15H10.6533V15.4ZM3.87646 13.759L4.11364 13.6799L4.11363 13.6799L3.87646 13.759ZM2.6 9.92979L2.83717 9.85073L2.35 9.92979H2.6ZM27.4963 4.44978L27.5013 4.44999L27.5221 3.95043L27.5171 3.95022L27.4963 4.44978ZM20.2533 4.45H27.5067V3.95H20.2533V4.45ZM20.0033 3.4V4.2H20.5033V3.4H20.0033ZM17.8533 1.25C19.0386 1.25 20.0033 2.21474 20.0033 3.4H20.5033C20.5033 1.9386 19.3147 0.75 17.8533 0.75V1.25ZM11.4533 1.25H17.8533V0.75H11.4533V1.25ZM9.30333 3.4C9.30333 2.21474 10.2681 1.25 11.4533 1.25V0.75C9.99193 0.75 8.80333 1.9386 8.80333 3.4H9.30333ZM9.30333 4.2V3.4H8.80333V4.2H9.30333ZM1.8 4.45H9.05333V3.95H1.8V4.45ZM1.25 5C1.25 4.70095 1.49477 4.45 1.8 4.45V3.95C1.2144 3.95 0.75 4.42905 0.75 5H1.25ZM1.25 22.6V5H0.75V22.6H1.25ZM3.4 24.75C2.21474 24.75 1.25 23.7853 1.25 22.6H0.75C0.75 24.0614 1.9386 25.25 3.4 25.25V24.75ZM25.9067 24.75H3.4V25.25H25.9067V24.75ZM28.0567 22.6C28.0567 23.7853 27.0919 24.75 25.9067 24.75V25.25C27.3681 25.25 28.5567 24.0614 28.5567 22.6H28.0567ZM28.0567 5.01687V22.6H28.5567V5.01687H28.0567ZM28.0567 5.01375V5.01687H28.5567V5.01375H28.0567ZM27.51 4.4502C27.676 4.4513 27.8014 4.50429 27.8879 4.58936C27.9749 4.67481 28.0446 4.81438 28.0571 5.0283L28.5562 4.9992C28.5381 4.6877 28.4309 4.42196 28.2384 4.23273C28.0454 4.0431 27.7886 3.95203 27.5133 3.95021L27.51 4.4502ZM11.4533 2.35C10.8742 2.35 10.4033 2.82089 10.4033 3.4H10.9033C10.9033 3.09703 11.1504 2.85 11.4533 2.85V2.35ZM17.8533 2.35H11.4533V2.85H17.8533V2.35ZM18.9033 3.4C18.9033 2.82089 18.4324 2.35 17.8533 2.35V2.85C18.1563 2.85 18.4033 3.09703 18.4033 3.4H18.9033ZM18.9033 4.2V3.4H18.4033V4.2H18.9033ZM10.6533 4.45H18.6533V3.95H10.6533V4.45ZM10.4033 3.4V4.2H10.9033V3.4H10.4033ZM26.1595 5.72094L23.6751 13.1739L24.1495 13.332L26.6338 5.87906L26.1595 5.72094ZM2.91 6.05H26.3967V5.55H2.91V6.05ZM5.63155 13.1739L3.14717 5.72094L2.67283 5.87906L5.1572 13.332L5.63155 13.1739ZM6.15312 13.55C5.91594 13.55 5.70652 13.3991 5.63158 13.174L5.15717 13.3319C5.30014 13.7613 5.70073 14.05 6.15312 14.05V13.55ZM10.6533 13.55H6.15312V14.05H10.6533V13.55ZM10.4033 13V13.8H10.9033V13H10.4033ZM11.4533 11.95C10.8734 11.95 10.4033 12.4201 10.4033 13H10.9033C10.9033 12.6962 11.1495 12.45 11.4533 12.45V11.95ZM17.8533 11.95H11.4533V12.45H17.8533V11.95ZM18.9033 13C18.9033 12.4201 18.4333 11.95 17.8533 11.95V12.45C18.1571 12.45 18.4033 12.6962 18.4033 13H18.9033ZM18.9033 13.8V13H18.4033V13.8H18.9033ZM23.1535 13.55H18.6533V14.05H23.1535V13.55ZM23.6751 13.174C23.6001 13.3991 23.3907 13.55 23.1535 13.55V14.05C23.6059 14.05 24.0065 13.7613 24.1495 13.3319L23.6751 13.174ZM17.3033 15.4V13.8H16.8033V15.4H17.3033ZM12.2533 15.65H17.0533V15.15H12.2533V15.65ZM12.0033 13.8V15.4H12.5033V13.8H12.0033ZM17.0533 13.55H12.2533V14.05H17.0533V13.55ZM26.4567 22.6C26.4567 22.903 26.2096 23.15 25.9067 23.15V23.65C26.4858 23.65 26.9567 23.1791 26.9567 22.6H26.4567ZM26.4567 9.92979V22.6H26.9567V9.92979H26.4567ZM25.6674 13.838L26.9438 10.0089L26.4695 9.85073L25.193 13.6799L25.6674 13.838ZM23.1535 15.65C24.2957 15.65 25.3063 14.9218 25.6674 13.838L25.193 13.6799C24.9 14.5595 24.0805 15.15 23.1535 15.15V15.65ZM18.6533 15.65H23.1535V15.15H18.6533V15.65ZM18.9033 16.2V15.4H18.4033V16.2H18.9033ZM17.8533 17.25C18.4333 17.25 18.9033 16.7799 18.9033 16.2H18.4033C18.4033 16.5038 18.1571 16.75 17.8533 16.75V17.25ZM11.4533 17.25H17.8533V16.75H11.4533V17.25ZM10.4033 16.2C10.4033 16.7799 10.8734 17.25 11.4533 17.25V16.75C11.1495 16.75 10.9033 16.5038 10.9033 16.2H10.4033ZM10.4033 15.4V16.2H10.9033V15.4H10.4033ZM6.15312 15.65H10.6533V15.15H6.15312V15.65ZM3.63928 13.838C4.00039 14.9218 5.01095 15.65 6.15312 15.65V15.15C5.22613 15.15 4.40669 14.5595 4.11364 13.6799L3.63928 13.838ZM2.36283 10.0089L3.63929 13.838L4.11363 13.6799L2.83717 9.85073L2.36283 10.0089ZM2.85 22.6V9.92979H2.35V22.6H2.85ZM3.4 23.15C3.09703 23.15 2.85 22.903 2.85 22.6H2.35C2.35 23.1791 2.82089 23.65 3.4 23.65V23.15ZM25.9067 23.15H3.4V23.65H25.9067V23.15Z" fill="#D5BE5D"/>
</g>
</svg>
