<svg width="27" height="26" viewBox="0 0 27 26" fill="none" xmlns="http://www.w3.org/2000/svg">
<path fill-rule="evenodd" clip-rule="evenodd" d="M13.8394 25C20.4668 25 25.8394 19.6274 25.8394 13C25.8394 6.37258 20.4668 1 13.8394 1C7.21194 1 1.83936 6.37258 1.83936 13C1.83936 15.8989 2.87428 18.6302 4.69096 20.767H1.92308C1.41328 20.767 1 21.1802 1 21.69C1 22.1998 1.41328 22.6131 1.92308 22.6131L7.14479 22.6131C7.65459 22.6131 8.06787 22.1998 8.06787 21.69L8.06787 16.4683C8.06787 15.9585 7.65459 15.5453 7.14479 15.5453C6.63499 15.5453 6.22171 15.9585 6.22171 16.4683L6.22171 19.7145C4.60742 17.886 3.68551 15.5189 3.68551 13C3.68551 7.39219 8.23155 2.84615 13.8394 2.84615C19.4472 2.84615 23.9932 7.39219 23.9932 13C23.9932 18.6078 19.4472 23.1538 13.8394 23.1538C13.3296 23.1538 12.9163 23.5671 12.9163 24.0769C12.9163 24.5867 13.3296 25 13.8394 25ZM13.8394 6.90858C14.3492 6.90858 14.7624 7.32185 14.7624 7.83165V13.8484L17.7603 16.8463C18.1208 17.2067 18.1208 17.7912 17.7603 18.1517C17.3998 18.5122 16.8153 18.5122 16.4549 18.1517L13.1866 14.8835C13.0135 14.7104 12.9163 14.4756 12.9163 14.2308V7.83165C12.9163 7.32185 13.3296 6.90858 13.8394 6.90858Z" fill="#FF8D8D"/>
<path d="M4.69096 20.767V21.017H5.23166L4.88143 20.605L4.69096 20.767ZM1.92308 22.6131V22.8631H1.92308L1.92308 22.6131ZM7.14479 22.6131V22.3631V22.6131ZM8.06787 21.69H7.81787H8.06787ZM8.06787 16.4683H8.31787H8.06787ZM6.22171 16.4683H5.97171H6.22171ZM6.22171 19.7145L6.0343 19.88L6.47171 20.3755V19.7145H6.22171ZM14.7624 13.8484H14.5124V13.952L14.5857 14.0252L14.7624 13.8484ZM17.7603 16.8463L17.5835 17.023L17.7603 16.8463ZM17.7603 18.1517L17.5835 17.9749L17.7603 18.1517ZM16.4549 18.1517L16.2781 18.3285L16.4549 18.1517ZM13.1866 14.8835L13.0099 15.0603V15.0603L13.1866 14.8835ZM25.5894 13C25.5894 19.4893 20.3287 24.75 13.8394 24.75V25.25C20.6048 25.25 26.0894 19.7655 26.0894 13H25.5894ZM13.8394 1.25C20.3287 1.25 25.5894 6.51065 25.5894 13H26.0894C26.0894 6.23451 20.6048 0.75 13.8394 0.75V1.25ZM2.08936 13C2.08936 6.51065 7.35001 1.25 13.8394 1.25V0.75C7.07387 0.75 1.58936 6.23451 1.58936 13H2.08936ZM4.88143 20.605C3.10266 18.5129 2.08936 15.8388 2.08936 13H1.58936C1.58936 15.959 2.6459 18.7476 4.5005 20.9289L4.88143 20.605ZM1.92308 21.017H4.69096V20.517H1.92308V21.017ZM1.25 21.69C1.25 21.3183 1.55135 21.017 1.92308 21.017V20.517C1.2752 20.517 0.75 21.0422 0.75 21.69H1.25ZM1.92308 22.3631C1.55135 22.3631 1.25 22.0618 1.25 21.69H0.75C0.75 22.3379 1.2752 22.8631 1.92308 22.8631V22.3631ZM7.14479 22.3631L1.92308 22.3631L1.92308 22.8631L7.14479 22.8631V22.3631ZM7.81787 21.69C7.81787 22.0618 7.51652 22.3631 7.14479 22.3631V22.8631C7.79266 22.8631 8.31787 22.3379 8.31787 21.69H7.81787ZM7.81787 16.4683L7.81787 21.69H8.31787L8.31787 16.4683H7.81787ZM7.14479 15.7953C7.51652 15.7953 7.81787 16.0966 7.81787 16.4683H8.31787C8.31787 15.8205 7.79266 15.2953 7.14479 15.2953V15.7953ZM6.47171 16.4683C6.47171 16.0966 6.77306 15.7953 7.14479 15.7953V15.2953C6.49692 15.2953 5.97171 15.8205 5.97171 16.4683H6.47171ZM6.47171 19.7145L6.47171 16.4683H5.97171L5.97171 19.7145H6.47171ZM3.43551 13C3.43551 15.5806 4.3802 18.0063 6.0343 19.88L6.40913 19.5491C4.83464 17.7656 3.93551 15.4572 3.93551 13H3.43551ZM13.8394 2.59615C8.09348 2.59615 3.43551 7.25411 3.43551 13H3.93551C3.93551 7.53026 8.36962 3.09615 13.8394 3.09615V2.59615ZM24.2432 13C24.2432 7.25411 19.5852 2.59615 13.8394 2.59615V3.09615C19.3091 3.09615 23.7432 7.53026 23.7432 13H24.2432ZM13.8394 23.4038C19.5852 23.4038 24.2432 18.7459 24.2432 13H23.7432C23.7432 18.4697 19.3091 22.9038 13.8394 22.9038V23.4038ZM13.1663 24.0769C13.1663 23.7052 13.4676 23.4038 13.8394 23.4038V22.9038C13.1915 22.9038 12.6663 23.4291 12.6663 24.0769H13.1663ZM13.8394 24.75C13.4676 24.75 13.1663 24.4487 13.1663 24.0769H12.6663C12.6663 24.7248 13.1915 25.25 13.8394 25.25V24.75ZM15.0124 7.83165C15.0124 7.18378 14.4872 6.65858 13.8394 6.65858V7.15858C14.2111 7.15858 14.5124 7.45992 14.5124 7.83165H15.0124ZM15.0124 13.8484V7.83165H14.5124V13.8484H15.0124ZM17.9371 16.6695L14.9392 13.6716L14.5857 14.0252L17.5835 17.023L17.9371 16.6695ZM17.9371 18.3285C18.3952 17.8704 18.3952 17.1276 17.9371 16.6695L17.5835 17.023C17.8464 17.2859 17.8464 17.7121 17.5835 17.9749L17.9371 18.3285ZM16.2781 18.3285C16.7362 18.7866 17.4789 18.7866 17.9371 18.3285L17.5835 17.9749C17.3207 18.2378 16.8945 18.2378 16.6316 17.9749L16.2781 18.3285ZM13.0099 15.0603L16.2781 18.3285L16.6316 17.9749L13.3634 14.7067L13.0099 15.0603ZM12.6663 14.2308C12.6663 14.5419 12.7899 14.8403 13.0099 15.0603L13.3634 14.7067C13.2372 14.5805 13.1663 14.4093 13.1663 14.2308H12.6663ZM12.6663 7.83165V14.2308H13.1663V7.83165H12.6663ZM13.8394 6.65858C13.1915 6.65858 12.6663 7.18378 12.6663 7.83165H13.1663C13.1663 7.45992 13.4676 7.15858 13.8394 7.15858V6.65858Z" fill="#FF8D8D"/>
</svg>
